<svg xmlns="http://www.w3.org/2000/svg" xmlns:xlink="http://www.w3.org/1999/xlink" width="600" height="400" viewBox="0 0 600 400"><rect width="100%" height="100%" fill="#DDDDDD"/><path d="M123.25 181.00L123.25 212.09L117.44 212.09L117.44 181.00L123.25 181.00ZM134.66 212.09L129.35 212.09L129.35 190.03L132.60 190.03Q133.63 190.03 133.96 191.00L133.96 191.00L134.30 192.64Q134.88 191.99 135.51 191.45Q136.15 190.92 136.87 190.53Q137.59 190.14 138.42 189.92Q139.24 189.69 140.23 189.69L140.23 189.69Q142.32 189.69 143.66 190.82Q145.01 191.95 145.67 193.82L145.67 193.82Q146.19 192.72 146.96 191.94Q147.74 191.15 148.66 190.66Q149.59 190.16 150.63 189.93Q151.67 189.69 152.72 189.69L152.72 189.69Q154.55 189.69 155.97 190.25Q157.39 190.81 158.36 191.88Q159.33 192.96 159.83 194.51Q160.34 196.05 160.34 198.05L160.34 198.05L160.34 212.09L155.03 212.09L155.03 198.05Q155.03 195.95 154.10 194.88Q153.18 193.82 151.39 193.82L151.39 193.82Q150.57 193.82 149.88 194.10Q149.18 194.38 148.65 194.90Q148.12 195.43 147.82 196.23Q147.52 197.02 147.52 198.05L147.52 198.05L147.52 212.09L142.19 212.09L142.19 198.05Q142.19 195.84 141.30 194.83Q140.41 193.82 138.69 193.82L138.69 193.82Q137.52 193.82 136.52 194.39Q135.52 194.96 134.66 195.95L134.66 195.95L134.66 212.09ZM177.02 206.40L177.02 202.68Q174.72 202.78 173.15 203.07Q171.58 203.36 170.63 203.82Q169.69 204.27 169.28 204.87Q168.87 205.47 168.87 206.18L168.87 206.18Q168.87 207.58 169.70 208.18Q170.53 208.78 171.86 208.78L171.86 208.78Q173.49 208.78 174.69 208.19Q175.88 207.60 177.02 206.40L177.02 206.40ZM165.80 194.81L164.85 193.11Q168.66 189.63 174.01 189.63L174.01 189.63Q175.94 189.63 177.47 190.26Q179.00 190.89 180.05 192.02Q181.10 193.15 181.65 194.72Q182.20 196.29 182.20 198.16L182.20 198.16L182.20 212.09L179.79 212.09Q179.04 212.09 178.63 211.87Q178.22 211.64 177.99 210.95L177.99 210.95L177.51 209.36Q176.68 210.12 175.88 210.69Q175.08 211.26 174.22 211.64Q173.36 212.03 172.39 212.23Q171.41 212.44 170.23 212.44L170.23 212.44Q168.83 212.44 167.65 212.06Q166.46 211.69 165.60 210.93Q164.74 210.18 164.27 209.06Q163.80 207.94 163.80 206.46L163.80 206.46Q163.80 205.62 164.08 204.79Q164.36 203.97 164.99 203.21Q165.62 202.46 166.64 201.80Q167.65 201.13 169.12 200.63Q170.59 200.14 172.55 199.83Q174.50 199.52 177.02 199.45L177.02 199.45L177.02 198.16Q177.02 195.95 176.07 194.88Q175.13 193.82 173.34 193.82L173.34 193.82Q172.05 193.82 171.20 194.12Q170.35 194.42 169.71 194.80Q169.06 195.17 168.54 195.47Q168.01 195.78 167.37 195.78L167.37 195.78Q166.81 195.78 166.42 195.49Q166.03 195.19 165.80 194.81L165.80 194.81ZM195.25 200.53L195.25 200.53Q196.24 200.53 196.97 200.26Q197.70 199.99 198.19 199.52Q198.67 199.04 198.92 198.38Q199.16 197.71 199.16 196.91L199.16 196.91Q199.16 195.28 198.19 194.32Q197.21 193.37 195.25 193.37L195.25 193.37Q193.30 193.37 192.32 194.32Q191.34 195.28 191.34 196.91L191.34 196.91Q191.34 197.69 191.59 198.36Q191.83 199.02 192.32 199.51Q192.80 199.99 193.54 200.26Q194.28 200.53 195.25 200.53ZM201.25 213.08L201.25 213.08Q201.25 212.44 200.86 212.03Q200.48 211.62 199.81 211.40Q199.14 211.17 198.25 211.06Q197.36 210.95 196.36 210.90Q195.36 210.85 194.30 210.80Q193.23 210.76 192.22 210.63L192.22 210.63Q191.34 211.13 190.79 211.79Q190.24 212.46 190.24 213.34L190.24 213.34Q190.24 213.92 190.53 214.43Q190.82 214.93 191.46 215.30Q192.09 215.66 193.10 215.87Q194.11 216.07 195.57 216.07L195.57 216.07Q197.06 216.07 198.13 215.85Q199.21 215.62 199.91 215.22Q200.61 214.82 200.93 214.28Q201.25 213.73 201.25 213.08ZM200.20 190.79L206.54 190.79L206.54 192.77Q206.54 193.71 205.40 193.93L205.40 193.93L203.42 194.29Q203.87 195.43 203.87 196.79L203.87 196.79Q203.87 198.42 203.22 199.74Q202.56 201.06 201.40 201.99Q200.24 202.91 198.66 203.42Q197.08 203.92 195.25 203.92L195.25 203.92Q194.61 203.92 194.00 203.86Q193.40 203.79 192.82 203.69L192.82 203.69Q191.79 204.31 191.79 205.08L191.79 205.08Q191.79 205.75 192.40 206.06Q193.02 206.37 194.03 206.50Q195.04 206.63 196.33 206.66Q197.62 206.70 198.97 206.80Q200.33 206.91 201.62 207.18Q202.91 207.45 203.92 208.03Q204.93 208.61 205.54 209.61Q206.15 210.61 206.15 212.18L206.15 212.18Q206.15 213.64 205.43 215.02Q204.71 216.39 203.35 217.47Q201.98 218.54 199.99 219.20Q198.00 219.86 195.47 219.86L195.47 219.86Q192.97 219.86 191.12 219.37Q189.27 218.89 188.05 218.08Q186.82 217.28 186.22 216.22Q185.62 215.17 185.62 214.03L185.62 214.03Q185.62 212.48 186.56 211.44Q187.49 210.40 189.12 209.77L189.12 209.77Q188.24 209.32 187.73 208.57Q187.21 207.82 187.21 206.59L187.21 206.59Q187.21 206.10 187.39 205.57Q187.58 205.04 187.93 204.53Q188.29 204.01 188.82 203.55Q189.36 203.09 190.09 202.72L190.09 202.72Q188.41 201.82 187.46 200.31Q186.50 198.81 186.50 196.79L186.50 196.79Q186.50 195.15 187.16 193.83Q187.81 192.51 188.98 191.57Q190.16 190.64 191.76 190.14Q193.36 189.65 195.25 189.65L195.25 189.65Q196.67 189.65 197.92 189.94Q199.16 190.23 200.20 190.79L200.20 190.79ZM214.09 198.53L224.10 198.53Q224.10 197.50 223.81 196.58Q223.52 195.67 222.94 194.98Q222.36 194.29 221.47 193.89Q220.58 193.50 219.40 193.50L219.40 193.50Q217.10 193.50 215.77 194.81Q214.45 196.12 214.09 198.53L214.09 198.53ZM227.63 201.73L213.98 201.73Q214.11 203.43 214.58 204.67Q215.05 205.90 215.83 206.71Q216.60 207.51 217.67 207.91Q218.73 208.31 220.02 208.31L220.02 208.31Q221.31 208.31 222.25 208.01Q223.18 207.71 223.88 207.34Q224.58 206.98 225.10 206.68Q225.63 206.37 226.13 206.37L226.13 206.37Q226.79 206.37 227.11 206.87L227.11 206.87L228.64 208.80Q227.76 209.84 226.66 210.53Q225.57 211.23 224.37 211.65Q223.18 212.07 221.94 212.24Q220.71 212.42 219.55 212.42L219.55 212.42Q217.25 212.42 215.27 211.65Q213.29 210.89 211.83 209.40Q210.37 207.90 209.53 205.70Q208.69 203.49 208.69 200.59L208.69 200.59Q208.69 198.33 209.42 196.34Q210.15 194.36 211.52 192.88Q212.88 191.41 214.85 190.55Q216.82 189.69 219.29 189.69L219.29 189.69Q221.37 189.69 223.14 190.36Q224.90 191.02 226.17 192.30Q227.44 193.58 228.16 195.44Q228.88 197.30 228.88 199.69L228.88 199.69Q228.88 200.89 228.62 201.31Q228.36 201.73 227.63 201.73L227.63 201.73ZM247.91 191.00L248.27 192.74Q248.94 192.08 249.68 191.51Q250.42 190.94 251.25 190.54Q252.08 190.14 253.02 189.92Q253.97 189.69 255.09 189.69L255.09 189.69Q256.89 189.69 258.29 190.30Q259.69 190.92 260.62 192.02Q261.56 193.13 262.04 194.67Q262.53 196.21 262.53 198.05L262.53 198.05L262.53 212.09L257.21 212.09L257.21 198.05Q257.21 196.03 256.29 194.93Q255.37 193.82 253.47 193.82L253.47 193.82Q252.10 193.82 250.89 194.44Q249.69 195.07 248.61 196.14L248.61 196.14L248.61 212.09L243.30 212.09L243.30 190.03L246.55 190.03Q247.58 190.03 247.91 191.00L247.91 191.00ZM277.32 189.69L277.32 189.69Q279.77 189.69 281.78 190.49Q283.79 191.28 285.22 192.74Q286.65 194.21 287.42 196.31Q288.20 198.42 288.20 201.02L288.20 201.02Q288.20 203.64 287.42 205.75Q286.65 207.86 285.22 209.34Q283.79 210.83 281.78 211.62Q279.77 212.42 277.32 212.42L277.32 212.42Q274.84 212.42 272.82 211.62Q270.80 210.83 269.37 209.34Q267.94 207.86 267.16 205.75Q266.37 203.64 266.37 201.02L266.37 201.02Q266.37 198.42 267.16 196.31Q267.94 194.21 269.37 192.74Q270.80 191.28 272.82 190.49Q274.84 189.69 277.32 189.69ZM277.32 208.33L277.32 208.33Q280.07 208.33 281.39 206.48Q282.71 204.63 282.71 201.06L282.71 201.06Q282.71 197.50 281.39 195.62Q280.07 193.75 277.32 193.75L277.32 193.75Q274.52 193.75 273.18 195.64Q271.83 197.52 271.83 201.06L271.83 201.06Q271.83 204.61 273.18 206.47Q274.52 208.33 277.32 208.33ZM299.61 212.44L299.61 212.44Q296.73 212.44 295.19 210.81Q293.66 209.19 293.66 206.33L293.66 206.33L293.66 194.01L291.40 194.01Q290.97 194.01 290.67 193.73Q290.37 193.45 290.37 192.89L290.37 192.89L290.37 190.79L293.92 190.21L295.03 184.19Q295.14 183.76 295.44 183.52Q295.74 183.28 296.22 183.28L296.22 183.28L298.97 183.28L298.97 190.23L304.86 190.23L304.86 194.01L298.97 194.01L298.97 205.97Q298.97 207.00 299.47 207.58Q299.98 208.16 300.86 208.16L300.86 208.16Q301.35 208.16 301.69 208.04Q302.02 207.92 302.27 207.79Q302.52 207.66 302.71 207.55Q302.90 207.43 303.10 207.43L303.10 207.43Q303.33 207.43 303.48 207.55Q303.63 207.66 303.81 207.90L303.81 207.90L305.40 210.48Q304.24 211.45 302.73 211.94Q301.23 212.44 299.61 212.44ZM330.36 206.40L330.36 202.68Q328.06 202.78 326.49 203.07Q324.92 203.36 323.97 203.82Q323.03 204.27 322.62 204.87Q322.21 205.47 322.21 206.18L322.21 206.18Q322.21 207.58 323.04 208.18Q323.87 208.78 325.20 208.78L325.20 208.78Q326.83 208.78 328.03 208.19Q329.22 207.60 330.36 206.40L330.36 206.40ZM319.13 194.81L318.19 193.11Q321.99 189.63 327.35 189.63L327.35 189.63Q329.28 189.63 330.81 190.26Q332.34 190.89 333.39 192.02Q334.44 193.15 334.99 194.72Q335.54 196.29 335.54 198.16L335.54 198.16L335.54 212.09L333.13 212.09Q332.38 212.09 331.97 211.87Q331.56 211.64 331.33 210.95L331.33 210.95L330.85 209.36Q330.01 210.12 329.22 210.69Q328.42 211.26 327.56 211.64Q326.70 212.03 325.72 212.23Q324.75 212.44 323.56 212.44L323.56 212.44Q322.17 212.44 320.98 212.06Q319.80 211.69 318.94 210.93Q318.08 210.18 317.61 209.06Q317.14 207.94 317.14 206.46L317.14 206.46Q317.14 205.62 317.42 204.79Q317.69 203.97 318.33 203.21Q318.96 202.46 319.97 201.80Q320.98 201.13 322.46 200.63Q323.93 200.14 325.89 199.83Q327.84 199.52 330.36 199.45L330.36 199.45L330.36 198.16Q330.36 195.95 329.41 194.88Q328.47 193.82 326.68 193.82L326.68 193.82Q325.39 193.82 324.54 194.12Q323.69 194.42 323.05 194.80Q322.40 195.17 321.88 195.47Q321.35 195.78 320.70 195.78L320.70 195.78Q320.15 195.78 319.76 195.49Q319.37 195.19 319.13 194.81L319.13 194.81ZM356.22 190.03L360.41 190.03L351.66 212.09L346.85 212.09L338.10 190.03L342.48 190.03Q343.09 190.03 343.48 190.31Q343.88 190.59 344.01 191.02L344.01 191.02L348.27 202.81Q348.61 203.84 348.87 204.83Q349.13 205.82 349.32 206.80L349.32 206.80Q349.54 205.82 349.79 204.83Q350.05 203.84 350.42 202.81L350.42 202.81L354.76 191.02Q354.91 190.59 355.30 190.31Q355.69 190.03 356.22 190.03L356.22 190.03ZM374.88 206.40L374.88 202.68Q372.58 202.78 371.01 203.07Q369.44 203.36 368.50 203.82Q367.55 204.27 367.14 204.87Q366.74 205.47 366.74 206.18L366.74 206.18Q366.74 207.58 367.56 208.18Q368.39 208.78 369.72 208.78L369.72 208.78Q371.36 208.78 372.55 208.19Q373.75 207.60 374.88 206.40L374.88 206.40ZM363.66 194.81L362.72 193.11Q366.52 189.63 371.87 189.63L371.87 189.63Q373.81 189.63 375.34 190.26Q376.86 190.89 377.92 192.02Q378.97 193.15 379.52 194.72Q380.07 196.29 380.07 198.16L380.07 198.16L380.07 212.09L377.66 212.09Q376.91 212.09 376.50 211.87Q376.09 211.64 375.85 210.95L375.85 210.95L375.38 209.36Q374.54 210.12 373.75 210.69Q372.95 211.26 372.09 211.64Q371.23 212.03 370.25 212.23Q369.27 212.44 368.09 212.44L368.09 212.44Q366.69 212.44 365.51 212.06Q364.33 211.69 363.47 210.93Q362.61 210.18 362.13 209.06Q361.66 207.94 361.66 206.46L361.66 206.46Q361.66 205.62 361.94 204.79Q362.22 203.97 362.86 203.21Q363.49 202.46 364.50 201.80Q365.51 201.13 366.98 200.63Q368.46 200.14 370.41 199.83Q372.37 199.52 374.88 199.45L374.88 199.45L374.88 198.16Q374.88 195.95 373.94 194.88Q372.99 193.82 371.21 193.82L371.21 193.82Q369.92 193.82 369.07 194.12Q368.22 194.42 367.57 194.80Q366.93 195.17 366.40 195.47Q365.88 195.78 365.23 195.78L365.23 195.78Q364.67 195.78 364.28 195.49Q363.90 195.19 363.66 194.81L363.66 194.81ZM385.23 190.03L390.56 190.03L390.56 212.09L385.23 212.09L385.23 190.03ZM391.29 183.61L391.29 183.61Q391.29 184.29 391.01 184.90Q390.73 185.50 390.27 185.95Q389.81 186.40 389.18 186.67Q388.56 186.94 387.85 186.94L387.85 186.94Q387.16 186.94 386.55 186.67Q385.94 186.40 385.48 185.95Q385.03 185.50 384.76 184.90Q384.50 184.29 384.50 183.61L384.50 183.61Q384.50 182.90 384.76 182.27Q385.03 181.65 385.48 181.20Q385.94 180.75 386.55 180.48Q387.16 180.21 387.85 180.21L387.85 180.21Q388.56 180.21 389.18 180.48Q389.81 180.75 390.27 181.20Q390.73 181.65 391.01 182.27Q391.29 182.90 391.29 183.61ZM396.04 180.14L401.35 180.14L401.35 212.09L396.04 212.09L396.04 180.14ZM418.31 206.40L418.31 202.68Q416.01 202.78 414.44 203.07Q412.88 203.36 411.93 203.82Q410.98 204.27 410.57 204.87Q410.17 205.47 410.17 206.18L410.17 206.18Q410.17 207.58 410.99 208.18Q411.82 208.78 413.15 208.78L413.15 208.78Q414.79 208.78 415.98 208.19Q417.18 207.60 418.31 206.40L418.31 206.40ZM407.09 194.81L406.15 193.11Q409.95 189.63 415.30 189.63L415.30 189.63Q417.24 189.63 418.77 190.26Q420.29 190.89 421.35 192.02Q422.40 193.15 422.95 194.72Q423.50 196.29 423.50 198.16L423.50 198.16L423.50 212.09L421.09 212.09Q420.34 212.09 419.93 211.87Q419.52 211.64 419.28 210.95L419.28 210.95L418.81 209.36Q417.97 210.12 417.18 210.69Q416.38 211.26 415.52 211.64Q414.66 212.03 413.68 212.23Q412.70 212.44 411.52 212.44L411.52 212.44Q410.12 212.44 408.94 212.06Q407.76 211.69 406.90 210.93Q406.04 210.18 405.56 209.06Q405.09 207.94 405.09 206.46L405.09 206.46Q405.09 205.62 405.37 204.79Q405.65 203.97 406.29 203.21Q406.92 202.46 407.93 201.80Q408.94 201.13 410.41 200.63Q411.89 200.14 413.84 199.83Q415.80 199.52 418.31 199.45L418.31 199.45L418.31 198.16Q418.31 195.95 417.37 194.88Q416.42 193.82 414.64 193.82L414.64 193.82Q413.35 193.82 412.50 194.12Q411.65 194.42 411.00 194.80Q410.36 195.17 409.83 195.47Q409.31 195.78 408.66 195.78L408.66 195.78Q408.10 195.78 407.71 195.49Q407.33 195.19 407.09 194.81L407.09 194.81ZM433.79 196.48L433.79 206.37Q434.70 207.47 435.76 207.92Q436.83 208.37 438.01 208.37L438.01 208.37Q439.23 208.37 440.21 207.93Q441.19 207.49 441.88 206.56Q442.57 205.62 442.93 204.17Q443.30 202.72 443.30 200.70L443.30 200.70Q443.30 197.07 442.09 195.44Q440.89 193.82 438.63 193.82L438.63 193.82Q437.11 193.82 435.97 194.52Q434.83 195.22 433.79 196.48L433.79 196.48ZM433.79 180.14L433.79 192.74Q435.13 191.35 436.75 190.52Q438.37 189.69 440.46 189.69L440.46 189.69Q442.37 189.69 443.91 190.44Q445.45 191.20 446.53 192.60Q447.62 194.01 448.20 196.01Q448.78 198.01 448.78 200.51L448.78 200.51Q448.78 203.19 448.11 205.39Q447.45 207.58 446.21 209.14Q444.97 210.70 443.23 211.56Q441.49 212.42 439.36 212.42L439.36 212.42Q438.33 212.42 437.49 212.21Q436.65 212.01 435.94 211.64Q435.24 211.28 434.64 210.75Q434.05 210.22 433.51 209.58L433.51 209.58L433.28 211.06Q433.15 211.62 432.84 211.86Q432.53 212.09 431.99 212.09L431.99 212.09L428.48 212.09L428.48 180.14L433.79 180.14ZM452.95 180.14L458.26 180.14L458.26 212.09L452.95 212.09L452.95 180.14ZM467.76 198.53L477.78 198.53Q477.78 197.50 477.49 196.58Q477.20 195.67 476.62 194.98Q476.04 194.29 475.15 193.89Q474.26 193.50 473.07 193.50L473.07 193.50Q470.77 193.50 469.45 194.81Q468.13 196.12 467.76 198.53L467.76 198.53ZM481.31 201.73L467.66 201.73Q467.79 203.43 468.26 204.67Q468.73 205.90 469.51 206.71Q470.28 207.51 471.34 207.91Q472.41 208.31 473.70 208.31L473.70 208.31Q474.99 208.31 475.92 208.01Q476.86 207.71 477.56 207.34Q478.26 206.98 478.78 206.68Q479.31 206.37 479.80 206.37L479.80 206.37Q480.47 206.37 480.79 206.87L480.79 206.87L482.32 208.80Q481.44 209.84 480.34 210.53Q479.25 211.23 478.05 211.65Q476.86 212.07 475.62 212.24Q474.39 212.42 473.23 212.42L473.23 212.42Q470.93 212.42 468.95 211.65Q466.97 210.89 465.51 209.40Q464.05 207.90 463.21 205.70Q462.37 203.49 462.37 200.59L462.37 200.59Q462.37 198.33 463.10 196.34Q463.83 194.36 465.20 192.88Q466.56 191.41 468.53 190.55Q470.50 189.69 472.97 189.69L472.97 189.69Q475.05 189.69 476.82 190.36Q478.58 191.02 479.85 192.30Q481.12 193.58 481.84 195.44Q482.56 197.30 482.56 199.69L482.56 199.69Q482.56 200.89 482.30 201.31Q482.04 201.73 481.31 201.73L481.31 201.73Z" fill="#999999"/></svg>